<?xml version="1.0" encoding="UTF-8" standalone="no"?>
<!-- Created with Inkscape (http://www.inkscape.org/) -->

<svg
   xmlns:dc="http://purl.org/dc/elements/1.1/"
   xmlns:cc="http://creativecommons.org/ns#"
   xmlns:rdf="http://www.w3.org/1999/02/22-rdf-syntax-ns#"
   xmlns:svg="http://www.w3.org/2000/svg"
   xmlns="http://www.w3.org/2000/svg"
   xmlns:sodipodi="http://sodipodi.sourceforge.net/DTD/sodipodi-0.dtd"
   xmlns:inkscape="http://www.inkscape.org/namespaces/inkscape"
   id="svg2"
   version="1.1"
   inkscape:version="0.91 r13725"
   width="80"
   height="80"
   viewBox="0 0 80 80"
   sodipodi:docname="icon.svg"
   inkscape:export-filename="icon.png"
   inkscape:export-xdpi="144"
   inkscape:export-ydpi="144">
  <metadata
     id="metadata8">
    <rdf:RDF>
      <cc:Work
         rdf:about="">
        <dc:format>image/svg+xml</dc:format>
        <dc:type
           rdf:resource="http://purl.org/dc/dcmitype/StillImage" />
        <dc:title />
      </cc:Work>
    </rdf:RDF>
  </metadata>
  <defs
     id="defs6" />
  <sodipodi:namedview
     pagecolor="#ffffff"
     bordercolor="#666666"
     borderopacity="1"
     objecttolerance="10"
     gridtolerance="10"
     guidetolerance="10"
     inkscape:pageopacity="0"
     inkscape:pageshadow="2"
     inkscape:window-width="1855"
     inkscape:window-height="1176"
     id="namedview4"
     showgrid="false"
     inkscape:zoom="6.49375"
     inkscape:cx="29.041595"
     inkscape:cy="65.249097"
     inkscape:window-x="65"
     inkscape:window-y="24"
     inkscape:window-maximized="1"
     inkscape:current-layer="svg2" />
  <rect
     style="opacity:1;fill:#a5e5e5;fill-opacity:1;stroke:none;stroke-width:4.05708647;stroke-linecap:round;stroke-linejoin:round;stroke-miterlimit:4;stroke-dasharray:none;stroke-opacity:1"
     id="rect3346"
     width="80"
     height="80"
     x="0"
     y="0" />
  <path
     style="fill:#87bcbc;fill-opacity:1;fill-rule:evenodd;stroke:none;stroke-width:1px;stroke-linecap:butt;stroke-linejoin:miter;stroke-opacity:1"
     d="M -0.11984861,40.989278 0,80 42.965725,79.760303 51.774599,70.292263 48.439327,58.929912 c 2.068885,-0.717755 2.72288,-2.415526 3.604914,-3.578349 L 35.851657,35.964436 C 37.094,34.768572 39.248084,33.497647 40.367715,31.56926 L 24.868586,14.502736 Z"
     id="path3344"
     inkscape:connector-curvature="0"
     sodipodi:nodetypes="cccccccccc" />
  <g
     style="font-style:normal;font-variant:normal;font-weight:normal;font-stretch:normal;font-size:55.53158569px;line-height:125%;font-family:FontAwesome;-inkscape-font-specification:FontAwesome;letter-spacing:0px;word-spacing:0px;fill:#ffffff;fill-opacity:1;stroke:none;stroke-width:0.1;stroke-linecap:butt;stroke-linejoin:miter;stroke-miterlimit:4;stroke-dasharray:none;stroke-opacity:1"
     id="text3349">
    <path
       d="m 55.291631,48.914135 c 0,-6.860256 -1.608822,-17.393479 -10.502869,-17.393479 -0.941009,0 -4.917529,4.219361 -10.867131,4.219361 -5.949602,0 -9.926122,-4.219361 -10.86713,-4.219361 -8.894047,0 -10.502869,10.533223 -10.502869,17.393479 0,4.917528 3.278353,7.861974 8.104815,7.861974 l 20.751247,0 c 1.236314,-1.129505 2.363618,-2.36802 3.741696,-3.355761 0.721829,0.113097 3.458439,3.288749 4.110154,3.158059 3.66827,-0.735605 6.032087,-3.488605 6.032087,-7.664272 z M 45.577994,21.807021 c 0,-6.435284 -5.221079,-11.656364 -11.656363,-11.656364 -6.435283,0 -11.656363,5.22108 -11.656363,11.656364 0,6.435283 5.22108,11.656362 11.656363,11.656362 6.435284,0 11.656363,-5.221079 11.656363,-11.656362 z"
       id="path4161"
       style="stroke-width:0.09795571;fill:#ffffff;stroke:none"
       inkscape:connector-curvature="0"
       sodipodi:nodetypes="ssssssccsssssss" />
  </g>
  <g
     style="font-style:normal;font-variant:normal;font-weight:normal;font-stretch:normal;font-size:29.75934029px;line-height:125%;font-family:FontAwesome;-inkscape-font-specification:FontAwesome;letter-spacing:0px;word-spacing:0px;fill:#ffffff;fill-opacity:1;stroke:none;stroke-width:1px;stroke-linecap:butt;stroke-linejoin:miter;stroke-opacity:1"
     id="text3353">
    <path
       d="m 67.365758,54.190142 c 0,-0.415169 -0.166068,-0.830339 -0.46499,-1.12926 L 64.642247,50.80236 c -0.298922,-0.298922 -0.714092,-0.46499 -1.129261,-0.46499 -0.415169,0 -0.830339,0.166068 -1.129261,0.46499 L 51.489681,61.713011 46.607289,56.814013 c -0.298922,-0.298922 -0.714091,-0.46499 -1.12926,-0.46499 -0.41517,0 -0.830339,0.166068 -1.129261,0.46499 l -2.258521,2.258521 c -0.298922,0.298922 -0.46499,0.714091 -0.46499,1.129261 0,0.415169 0.166068,0.830338 0.46499,1.12926 l 6.011652,6.011653 2.258521,2.258521 c 0.298922,0.298922 0.714092,0.46499 1.129261,0.46499 0.415169,0 0.830339,-0.166068 1.129261,-0.46499 l 2.258521,-2.258521 12.023305,-12.023305 c 0.298922,-0.298922 0.46499,-0.714091 0.46499,-1.129261 z"
       style=""
       id="path3358" />
  </g>
  <path
     id="path4375"
     d="m 71.314257,14.125367 q 0,3.161828 -1.290171,5.59074 -1.290171,2.428914 -3.228457,3.713028 1.938286,1.284114 3.228457,3.713027 1.290171,2.428913 1.290171,5.590741 l 1.162971,0 q 0.169601,0 0.278628,0.109024 0.109025,0.109025 0.109025,0.278629 l 0,0.775315 q 0,0.1696 -0.109025,0.278628 -0.109024,0.109025 -0.278628,0.109025 l -17.832222,0 q -0.1696,0 -0.278629,-0.109025 -0.109025,-0.109024 -0.109025,-0.278628 l 0,-0.775315 q 0,-0.1696 0.109025,-0.278629 0.109024,-0.109024 0.278629,-0.109024 l 1.162971,0 q 0,-3.161828 1.290171,-5.590741 1.290171,-2.428913 3.228456,-3.713027 -1.938285,-1.284114 -3.228456,-3.713028 -1.290171,-2.428912 -1.290171,-5.59074 l -1.162971,0 q -0.1696,0 -0.278629,-0.109025 -0.109025,-0.109023 -0.109025,-0.278629 l 0,-0.775312 q 0,-0.1696 0.109025,-0.278629 0.109024,-0.109025 0.278629,-0.109025 l 17.832222,0 q 0.169601,0 0.278628,0.109025 0.109025,0.109025 0.109025,0.278629 l 0,0.775312 q 0,0.169601 -0.109025,0.278629 -0.109024,0.109025 -0.278628,0.109025 l -1.162971,0 z m -1.550629,0 -12.405023,0 q 0,2.495541 1.029714,4.651884 l 10.345596,0 q 1.029713,-2.156343 1.029713,-4.651884 z m -0.690511,14.730966 q -0.654173,-1.708114 -1.762629,-2.9256 -1.108457,-1.217484 -2.356228,-1.726284 l -2.786283,0 q -1.247771,0.5088 -2.356228,1.726284 -1.108457,1.217486 -1.762629,2.9256 l 11.023997,0 z"
     inkscape:connector-curvature="0"
     style="fill:#ffffff" />
  <g
     style="font-style:normal;font-variant:normal;font-weight:normal;font-stretch:condensed;font-size:8.96916962px;line-height:125%;font-family:Impact;-inkscape-font-specification:'Impact Condensed';letter-spacing:0px;word-spacing:0px;fill:#ffffff;fill-opacity:1;stroke:none;stroke-width:1px;stroke-linecap:butt;stroke-linejoin:miter;stroke-opacity:1"
     id="text3347"
     transform="matrix(1.2709633,0,0,1.2709633,-21.500719,-0.12908257)">
    <path
       d="m 37.634678,0.62528626 0,1.41895064 -1.094869,0 0,5.6714232 -1.84376,0 0,-5.6714232 -1.09049,0 0,-1.41895064 4.029119,0 z"
       id="path3352"
       inkscape:connector-curvature="0" />
    <path
       d="m 42.294442,0.62528626 0,7.09037384 -1.84376,0 0,-2.9780446 -0.551814,0 0,2.9780446 -1.84376,0 0,-7.09037384 1.84376,0 0,2.53571734 0.551814,0 0,-2.53571734 1.84376,0 z"
       id="path3354"
       inkscape:connector-curvature="0" />
    <path
       d="m 43.030194,0.62528626 3.074393,0 0,1.41895064 -1.230633,0 0,1.3444996 1.151803,0 0,1.348879 -1.151803,0 0,1.5590939 1.353259,0 0,1.4189507 -3.197019,0 0,-7.09037384 z"
       id="path3356"
       inkscape:connector-curvature="0" />
    <path
       d="m 50.974566,4.7770308 q 0,1.0685925 -0.05255,1.5152992 -0.04817,0.4423272 -0.315322,0.8102033 -0.262769,0.3678761 -0.713855,0.5649525 -0.451086,0.1970765 -1.051074,0.1970765 -0.569332,0 -1.024798,-0.183938 Q 47.365877,7.4923068 47.08997,7.1200512 46.814063,6.7477956 46.761509,6.3098479 46.708955,5.8719001 46.708955,4.7770308 l 0,-1.2131152 q 0,-1.0685925 0.04817,-1.5109197 0.05255,-0.4467067 0.315322,-0.8145828 0.267148,-0.36787611 0.718234,-0.56495259 0.451086,-0.19707648 1.051075,-0.19707648 0.569332,0 1.020418,0.18831753 0.455466,0.18393805 0.731373,0.55619364 0.275907,0.3722556 0.32846,0.8102033 0.05255,0.4379477 0.05255,1.5328171 l 0,1.2131152 z m -1.84376,-2.329882 q 0,-0.4948809 -0.05693,-0.6306447 -0.05255,-0.1401433 -0.223353,-0.1401433 -0.144523,0 -0.223354,0.1138664 -0.07445,0.109487 -0.07445,0.6569216 l 0,3.3108849 q 0,0.6175063 0.04817,0.7620291 0.05255,0.1445227 0.236492,0.1445227 0.188318,0 0.240872,-0.1664201 0.05255,-0.1664201 0.05255,-0.7926854 l 0,-3.2583312 z"
       id="path3359"
       inkscape:connector-curvature="0" />
    <path
       d="m 51.666523,0.62528626 1.305084,0 q 1.305085,0 1.76493,0.10072798 0.464224,0.10072798 0.75327,0.51677836 0.293425,0.4116708 0.293425,1.3182227 0,0.8277212 -0.205836,1.1123872 -0.205835,0.284666 -0.810203,0.3415992 0.547435,0.1357638 0.735752,0.3634967 0.188318,0.2277328 0.232112,0.4204298 0.04818,0.1883175 0.04818,1.0466951 l 0,1.8700368 -1.712376,0 0,-2.3561588 q 0,-0.5693321 -0.09197,-0.7050959 -0.08759,-0.1357638 -0.468604,-0.1357638 l 0,3.1970185 -1.84376,0 0,-7.09037384 z m 1.84376,1.21311524 0,1.5766118 q 0.310943,0 0.433568,-0.08321 0.127005,-0.08759 0.127005,-0.5561937 l 0,-0.3897734 q 0,-0.3372198 -0.122625,-0.4423273 -0.118246,-0.1051074 -0.437948,-0.1051074 z"
       id="path3361"
       inkscape:connector-curvature="0" />
    <path
       d="m 56.501467,0.62528626 3.074393,0 0,1.41895064 -1.230633,0 0,1.3444996 1.151802,0 0,1.348879 -1.151802,0 0,1.5590939 1.353258,0 0,1.4189507 -3.197018,0 0,-7.09037384 z"
       id="path3363"
       inkscape:connector-curvature="0" />
    <path
       d="m 63.83271,0.62528626 0,1.41895064 -1.094869,0 0,5.6714232 -1.84376,0 0,-5.6714232 -1.09049,0 0,-1.41895064 4.029119,0 z"
       id="path3365"
       inkscape:connector-curvature="0" />
    <path
       d="m 66.10566,0.62528626 0,7.09037384 -1.84376,0 0,-7.09037384 1.84376,0 z"
       id="path3367"
       inkscape:connector-curvature="0" />
    <path
       d="m 71.159578,3.7171973 -1.84376,0 0,-1.2350126 q 0,-0.5386758 -0.06131,-0.6700601 -0.05693,-0.1357638 -0.258389,-0.1357638 -0.227733,0 -0.289046,0.1620407 -0.06131,0.1620407 -0.06131,0.7007164 l 0,3.2933669 q 0,0.5167784 0.06131,0.6744395 0.06131,0.1576612 0.275907,0.1576612 0.205836,0 0.267148,-0.1576612 0.06569,-0.1576611 0.06569,-0.7401316 l 0,-0.8890339 1.84376,0 0,0.275907 q 0,1.0992489 -0.157662,1.559094 -0.153281,0.4598451 -0.687578,0.8058238 -0.529916,0.3459787 -1.309463,0.3459787 -0.810204,0 -1.335741,-0.293425 Q 67.143597,7.2777124 66.972797,6.760934 66.801998,6.2397762 66.801998,5.1974606 l 0,-2.0714928 q 0,-0.7664085 0.05255,-1.147423 0.05255,-0.385394 0.310943,-0.7401317 0.262769,-0.35473767 0.722614,-0.55619363 0.464225,-0.20583544 1.064213,-0.20583544 0.814583,0 1.3445,0.31532237 0.529916,0.3153224 0.696336,0.7883059 0.166421,0.4686041 0.166421,1.4627455 l 0,0.6744395 z"
       id="path3369"
       inkscape:connector-curvature="0" />
    <path
       d="m 75.013518,0.62528626 1.055454,7.09037384 -1.887555,0 -0.09197,-1.2744279 -0.661301,0 -0.109487,1.2744279 -1.909452,0 0.937208,-7.09037384 2.667102,0 z M 74.036894,5.1843222 Q 73.896751,3.9799659 73.756608,2.2106571 73.476321,4.2427346 73.406249,5.1843222 l 0.630645,0 z"
       id="path3371"
       inkscape:connector-curvature="0" />
    <path
       d="m 78.228055,0.62528626 0,5.67142314 1.121146,0 0,1.4189507 -2.964906,0 0,-7.09037384 1.84376,0 z"
       id="path3373"
       inkscape:connector-curvature="0" />
  </g>
</svg>
